<?xml version="1.0" encoding="UTF-8" standalone="no"?>
<!-- Created with Inkscape (http://www.inkscape.org/) -->
<svg
   xmlns:svg="http://www.w3.org/2000/svg"
   xmlns="http://www.w3.org/2000/svg"
   version="1.0"
   width="400"
   height="420"
   id="svg5138">
  <defs
     id="defs5169" />
  <g
     id="g5142"
     style="font-size:60px;fill:none;stroke:#000000;stroke-width:4;stroke-linecap:round;font-family:Helvetica">
    <line
       id="line5144"
       y2="49.200001"
       x2="352"
       y1="86.400002"
       x1="287.60001" />
    <line
       id="line5146"
       y2="63"
       x2="360"
       y1="100.2"
       x1="295.60001" />
    <polyline
       id="polyline5148"
       points="228,56.5 291.6,93.3 291.6,164" />
    <line
       id="line5150"
       y2="383.20001"
       x2="107.8"
       y1="343.5"
       x1="176.5" />
    <line
       id="line5152"
       y2="344.39999"
       x2="40.799999"
       y1="265.20001"
       x1="40.799999" />
    <line
       id="line5154"
       y2="266.20001"
       x2="176.5"
       y1="226.5"
       x1="107.8" />
    <polygon
       points="264,215 200,252 200,357.6 108.4,410.6 16.8,357.6 16.8,252 108.4,199.1 200,252 264,215 "
       id="polygon5156" />
  </g>
  <path
     d="M 110.00468,56.400002 L 110.00468,13.450783 L 115.68828,13.450783 L 115.68828,31.087502 L 138.0125,31.087502 L 138.0125,13.450783 L 143.69609,13.450783 L 143.69609,56.400002 L 138.0125,56.400002 L 138.0125,36.155861 L 115.68828,36.155861 L 115.68828,56.400002 L 110.00468,56.400002 z M 171.21318,65.598732 L 171.21318,69.400002 L 149.92168,69.400002 C 149.89238,68.447854 150.04619,67.532328 150.3831,66.653419 C 150.92509,65.203228 151.79301,63.775007 152.98686,62.368752 C 154.1807,60.96251 155.90556,59.336535 158.16142,57.490822 C 161.66239,54.619743 164.02811,52.345575 165.25859,50.668312 C 166.48904,48.991086 167.10428,47.405395 167.10429,45.911232 C 167.10428,44.343874 166.54397,43.021854 165.42339,41.945168 C 164.30276,40.868536 162.84158,40.330206 161.03984,40.330177 C 159.13553,40.330206 157.6121,40.901495 156.46953,42.044044 C 155.32694,43.186649 154.74833,44.768679 154.73369,46.790138 L 150.66875,46.372658 C 150.94706,43.340457 151.99443,41.029669 153.81084,39.440285 C 155.62724,37.850961 158.0662,37.056284 161.12773,37.056252 C 164.21854,37.056284 166.66482,37.913217 168.4666,39.627052 C 170.26833,41.340948 171.16921,43.464969 171.16924,45.999123 C 171.16921,47.288207 170.90554,48.555296 170.37822,49.800392 C 169.85085,51.045528 168.97561,52.356562 167.75249,53.733498 C 166.52932,55.110465 164.49686,57.000112 161.65508,59.402443 C 159.28202,61.394638 157.75858,62.745955 157.08476,63.456398 C 156.41093,64.166852 155.85429,64.880963 155.41484,65.598732 L 171.21318,65.598732 z M 178.17851,56.400002 L 178.17851,13.450783 L 184.00859,13.450783 L 206.56718,47.171486 L 206.56718,13.450783 L 212.0164,13.450783 L 212.0164,56.400002 L 206.18633,56.400002 L 183.62773,22.650002 L 183.62773,56.400002 L 178.17851,56.400002 z"
     id="text5158"
     style="font-size:60px;stroke-linecap:round;font-family:Helvetica" />
  <path
     d="M 363.89532,42.601173 L 369.25665,42.132423 C 369.51055,44.280873 370.10137,46.043567 371.02911,47.420509 C 371.95684,48.79747 373.39727,49.91075 375.3504,50.760353 C 377.30351,51.609967 379.50078,52.034772 381.9422,52.034767 C 384.11015,52.034772 386.02421,51.712506 387.68439,51.06797 C 389.34452,50.423445 390.57987,49.539657 391.39044,48.416603 C 392.20096,47.293565 392.60623,46.067981 392.60626,44.739845 C 392.60623,43.392202 392.21561,42.215445 391.43439,41.209572 C 390.65311,40.203729 389.36405,39.359003 387.5672,38.675392 C 386.41483,38.226192 383.86601,37.52795 379.92072,36.580666 C 375.97539,35.633421 373.21172,34.739867 371.6297,33.900002 C 369.57891,32.825806 368.05059,31.4928 367.04474,29.900978 C 366.03887,28.309209 365.53595,26.526985 365.53595,24.554298 C 365.53595,22.386364 366.15118,20.359999 367.38165,18.475197 C 368.61211,16.590471 370.40899,15.159808 372.77228,14.183205 C 375.13555,13.206685 377.7625,12.718405 380.65314,12.718361 C 383.83671,12.718405 386.64432,13.231099 389.07599,14.256447 C 391.5076,15.281879 393.37771,16.790666 394.68634,18.782814 C 395.9949,20.775037 396.69802,23.030894 396.79572,25.550392 L 391.3465,25.960548 C 391.0535,23.245738 390.06229,21.194959 388.37286,19.808205 C 386.68339,18.421524 384.18827,17.728165 380.88751,17.728127 C 377.45,17.728165 374.94512,18.358047 373.37286,19.617775 C 371.80059,20.877576 371.01446,22.396129 371.01447,24.173439 C 371.01446,25.716438 371.5711,26.985968 372.68439,27.982033 C 373.77812,28.978154 376.63457,29.998661 381.25372,31.043556 C 385.87284,32.088502 389.04178,33.001587 390.76056,33.782814 C 393.26053,34.935179 395.10623,36.395139 396.29767,38.162697 C 397.48904,39.930291 398.08474,41.966422 398.08478,44.271095 C 398.08474,46.556261 397.43044,48.70958 396.12189,50.731056 C 394.81326,52.752544 392.93338,54.324808 390.48224,55.447853 C 388.03104,56.5709 385.27225,57.132423 382.20587,57.132423 C 378.31914,57.132423 375.0623,56.566017 372.43536,55.433205 C 369.8084,54.300394 367.74786,52.596294 366.25372,50.3209 C 364.75958,48.045518 363.97345,45.472278 363.89532,42.601173 L 363.89532,42.601173 z"
     id="text5164"
     style="font-size:60px;stroke-linecap:round;font-family:Helvetica" />
  <path
     d="M 273.77032,215.10001 L 273.77032,172.15079 L 279.6004,172.15079 L 302.159,205.87149 L 302.159,172.15079 L 307.60822,172.15079 L 307.60822,215.10001 L 301.77814,215.10001 L 279.21954,181.35001 L 279.21954,215.10001 L 273.77032,215.10001 z M 317.36407,215.10001 L 317.36407,172.15079 L 323.04767,172.15079 L 323.04767,189.78751 L 345.37189,189.78751 L 345.37189,172.15079 L 351.05548,172.15079 L 351.05548,215.10001 L 345.37189,215.10001 L 345.37189,194.85587 L 323.04767,194.85587 L 323.04767,215.10001 L 317.36407,215.10001 z"
     id="text5166"
     style="font-size:60px;stroke-linecap:round;font-family:Helvetica" />
</svg>
